<mxfile host="app.diagrams.net" modified="2024-07-17T11:22:35.592Z" agent="Mozilla/5.0 (Windows NT 10.0; Win64; x64) AppleWebKit/537.36 (KHTML, like Gecko) Chrome/126.0.0.0 Safari/537.36 Edg/126.0.0.0" version="24.6.4" etag="9LFVaw2ciP_sYOz2TZjN" type="github">
  <diagram name="第 1 页" id="P4lwAblw9_sty8PCu2t_">
    <mxGraphModel>
      <root>
        <mxCell id="0" />
        <mxCell id="1" parent="0" />
      </root>
    </mxGraphModel>
  </diagram>
</mxfile>
